<svg id="3df33713-44fe-428e-adb5-27b7b9eb1cf8" data-name="Icons" xmlns="http://www.w3.org/2000/svg" viewBox="0 0 100 100"><title>ITM</title><g id="c6b91353-3df0-4725-bbab-250506609c1c" data-name="Directory"><polyline points="73.3 33.61 82.19 33.61 82.19 70.4 17.81 70.4 17.81 33.61 26.7 33.61" fill="none" stroke="#000" stroke-linecap="round" stroke-linejoin="round" stroke-width="3"/><path d="M60.44,30.28A42.23,42.23,0,0,0,50,33.61a42.33,42.33,0,0,0-23.3-3.67v35.8a44.37,44.37,0,0,1,13.09.46A44.87,44.87,0,0,1,50,69.41,44.87,44.87,0,0,1,60.21,66.2a44.37,44.37,0,0,1,13.09-.46V29.94A42.22,42.22,0,0,0,60.44,30.28Z" fill="none" stroke="#000" stroke-linecap="round" stroke-linejoin="round" stroke-width="3"/><line x1="50" y1="33.61" x2="50" y2="69.41" fill="none" stroke="#000" stroke-linecap="round" stroke-linejoin="round" stroke-width="3"/></g></svg>