<svg id="b2584b74-1e83-4139-9c2a-5391bf39383f" data-name="Icons" xmlns="http://www.w3.org/2000/svg" viewBox="0 0 100 100"><title>ITM</title><g id="a8b382d1-d9b7-42d7-9cbd-a108cb588c25" data-name="Trade"><g id="26ee0f90-94f3-4610-9b1b-3d8548d8cc4c" data-name="Trade"><polygon points="31.49 48.78 39.1 38.08 31.49 42.57 23.87 38.08 31.49 48.78 31.49 48.78 31.49 48.78 31.49 48.78 31.49 48.78" fill="none" stroke="#000" stroke-linecap="round" stroke-linejoin="round" stroke-width="2.39"/><polygon points="31.49 38.16 31.49 38.16 31.49 38.16 31.49 38.16 31.49 38.16 39.1 33.65 31.49 21.02 31.49 21.02 31.49 21.02 31.49 21.02 31.49 21.02 23.87 33.65 31.49 38.16" fill="none" stroke="#000" stroke-linecap="round" stroke-linejoin="round" stroke-width="2.39"/><path d="M75,73.6A10,10,0,0,0,66.52,59,15.23,15.23,0,0,0,75,73.6Z" fill="none" stroke="#000" stroke-linecap="round" stroke-linejoin="round" stroke-width="3"/><path d="M65.78,59a10,10,0,0,0-9.6,10A9.83,9.83,0,0,0,57.3,73.6,15.19,15.19,0,0,0,65.78,59Z" fill="none" stroke="#000" stroke-linecap="round" stroke-linejoin="round" stroke-width="3"/><path d="M66.15,71.73a15.22,15.22,0,0,0-8.47,2.55,10,10,0,0,0,16.94,0A15.15,15.15,0,0,0,66.15,71.73Z" fill="none" stroke="#000" stroke-linecap="round" stroke-linejoin="round" stroke-width="3"/><polyline points="49.76 33.39 65.81 33.39 65.81 49.44" fill="none" stroke="#000" stroke-linecap="round" stroke-linejoin="round" stroke-width="3"/><polyline points="43.99 71.88 27.94 71.88 27.94 55.84" fill="none" stroke="#000" stroke-linecap="round" stroke-linejoin="round" stroke-width="3"/><polyline points="41.53 76.81 46.45 71.89 41.53 66.96" fill="none" stroke="#000" stroke-linecap="round" stroke-linejoin="round" stroke-width="3.28"/><polyline points="52.23 28.47 47.3 33.39 52.22 38.31" fill="none" stroke="#000" stroke-linecap="round" stroke-linejoin="round" stroke-width="3.28"/></g><line x1="31.49" y1="21.81" x2="31.49" y2="38.16" fill="none" stroke="#000" stroke-linecap="round" stroke-linejoin="round" stroke-width="2"/><polyline points="24.53 33.66 31.49 30.69 39.1 33.65" fill="none" stroke="#000" stroke-linecap="round" stroke-linejoin="round" stroke-width="2"/><line x1="31.49" y1="42.57" x2="31.49" y2="48.78" fill="none" stroke="#000" stroke-linecap="round" stroke-linejoin="round" stroke-width="2"/></g></svg>