<svg id="420710ec-5d8a-48f6-9964-56508aea9838" data-name="Icons" xmlns="http://www.w3.org/2000/svg" viewBox="0 0 100 100"><title>ITM</title><g id="54acf10a-2ac7-4269-b9b5-fe2f41c06f73" data-name="FB Messenger"><path d="M50,26.94c-13.06,0-23.64,9.44-23.64,21.08a20,20,0,0,0,7.22,15.16A23.42,23.42,0,0,1,30.82,72a.68.68,0,0,0,.6,1.06,22.73,22.73,0,0,0,12.64-4.62,26.9,26.9,0,0,0,5.94.67c13.06,0,23.64-9.44,23.64-21.09S63.06,26.94,50,26.94Z" fill="none" stroke="#000" stroke-linecap="round" stroke-miterlimit="10" stroke-width="3"/><polyline points="50 36.2 45.93 46.98 53.86 46.98 49.89 58.03" fill="none" stroke="#000" stroke-linecap="round" stroke-miterlimit="10" stroke-width="3"/></g></svg>