<svg id="8e4c6772-924c-4a84-8d3e-e5d1d81278eb" data-name="Icons" xmlns="http://www.w3.org/2000/svg" viewBox="0 0 100 100"><title>ITM</title><g id="0e79d305-7545-43e0-9f60-c512ca9ebb3d" data-name="Swap Currency"><polyline points="50.83 31.97 66.88 31.97 66.88 48.02" fill="none" stroke="#000" stroke-linecap="round" stroke-linejoin="round" stroke-width="3"/><polyline points="46.29 70.72 30.24 70.72 30.24 54.67" fill="none" stroke="#000" stroke-linecap="round" stroke-linejoin="round" stroke-width="3"/><path d="M39.38,44.1A7.09,7.09,0,0,1,35.77,46v1.68a1.61,1.61,0,0,1-.48,1.19,1.63,1.63,0,0,1-1.18.47A1.55,1.55,0,0,1,33,48.9a1.63,1.63,0,0,1-.46-1.19V46.19a9.31,9.31,0,0,1-2.68-.62,8.51,8.51,0,0,1-2.34-1.47,1.9,1.9,0,0,1-.74-1.43,1.51,1.51,0,0,1,.47-1.1,1.46,1.46,0,0,1,1.11-.48,1.42,1.42,0,0,1,.92.33,9.9,9.9,0,0,0,1.6,1.07,5.38,5.38,0,0,0,1.66.53V37.73q-5.46-1-5.46-5.46a4.93,4.93,0,0,1,1.52-3.71,6.85,6.85,0,0,1,3.94-1.77v-.9A1.63,1.63,0,0,1,33,24.71a1.59,1.59,0,0,1,1.18-.47,1.49,1.49,0,0,1,1.14.47,1.63,1.63,0,0,1,.47,1.18v1a7.85,7.85,0,0,1,3.8,1.68A1.8,1.8,0,0,1,40.35,30a1.54,1.54,0,0,1-.46,1.1,1.49,1.49,0,0,1-1.08.47,1.21,1.21,0,0,1-.74-.24,7.12,7.12,0,0,0-2.3-1.17v5A7.92,7.92,0,0,1,39.59,37a4.84,4.84,0,0,1,1.2,3.55A4.82,4.82,0,0,1,39.38,44.1ZM30.83,33.59a4,4,0,0,0,1.68.88V30a3.22,3.22,0,0,0-1.68.79,1.84,1.84,0,0,0-.57,1.38A1.91,1.91,0,0,0,30.83,33.59ZM37,41.92a1.65,1.65,0,0,0,.49-1.15,2.13,2.13,0,0,0-.43-1.32,3.39,3.39,0,0,0-1.33-.94v4.26A3.46,3.46,0,0,0,37,41.92Z"/><path d="M72.13,70.38a10,10,0,0,0-8.49-14.56A15.23,15.23,0,0,0,72.13,70.38Z" fill="none" stroke="#000" stroke-linecap="round" stroke-linejoin="round" stroke-width="3"/><path d="M62.9,55.82a10,10,0,0,0-9.61,10,9.83,9.83,0,0,0,1.13,4.59A15.21,15.21,0,0,0,62.9,55.82Z" fill="none" stroke="#000" stroke-linecap="round" stroke-linejoin="round" stroke-width="3"/><path d="M63.27,68.51a15.19,15.19,0,0,0-8.47,2.55,10,10,0,0,0,16.94,0A15.19,15.19,0,0,0,63.27,68.51Z" fill="none" stroke="#000" stroke-linecap="round" stroke-linejoin="round" stroke-width="3"/><polyline points="43.83 75.64 48.75 70.72 43.83 65.79" fill="none" stroke="#000" stroke-linecap="round" stroke-linejoin="round" stroke-width="3.28"/><polyline points="53.3 27.05 48.37 31.97 53.29 36.9" fill="none" stroke="#000" stroke-linecap="round" stroke-linejoin="round" stroke-width="3.28"/></g></svg>