<svg id="8622ea95-c946-42f8-8bd3-44041c01cde5" data-name="Icons" xmlns="http://www.w3.org/2000/svg" viewBox="0 0 100 100"><title>ITM</title><g id="8cbc9f08-5285-4a3a-8733-aef33287b8c8" data-name="My Account"><path d="M80.05,32.57H20a.93.93,0,0,0-1,.84V66.59a.93.93,0,0,0,1,.84h60.1a.93.93,0,0,0,1-.84V33.41A.93.93,0,0,0,80.05,32.57Z" fill="none" stroke="#000" stroke-linecap="round" stroke-linejoin="round" stroke-width="3"/><circle cx="36.22" cy="45.51" r="5.49" fill="none" stroke="#000" stroke-linecap="round" stroke-linejoin="round" stroke-width="3"/><path d="M25.5,66.65H46.94a.71.71,0,0,0,.71-.71V61c0-6.32-5.12-9.61-11.43-9.61S24.78,54.7,24.78,61v4.91A.72.72,0,0,0,25.5,66.65Z" fill="none" stroke="#000" stroke-linecap="round" stroke-linejoin="round" stroke-width="3"/><line x1="55.61" y1="44.52" x2="73.78" y2="44.52" fill="none" stroke="#000" stroke-linecap="round" stroke-linejoin="round" stroke-width="3"/><line x1="55.61" y1="51.68" x2="73.78" y2="51.68" fill="none" stroke="#000" stroke-linecap="round" stroke-linejoin="round" stroke-width="3"/><line x1="55.61" y1="58.31" x2="73.78" y2="58.31" fill="none" stroke="#000" stroke-linecap="round" stroke-linejoin="round" stroke-width="3"/></g></svg>