<svg id="49ec3864-302d-4675-ab1b-f7d53d06e92e" data-name="Icons" xmlns="http://www.w3.org/2000/svg" viewBox="0 0 100 100"><title>ITM</title><g id="70af421c-fb09-4ad5-aeba-284c74968d1d" data-name="Market Cap"><path d="M43.09,42a3.45,3.45,0,0,1-1.77.94v.83a.79.79,0,0,1-.81.81.77.77,0,0,1-.56-.23.82.82,0,0,1-.23-.58V43a4.49,4.49,0,0,1-1.31-.3A4.22,4.22,0,0,1,37.26,42a.93.93,0,0,1-.36-.71.78.78,0,0,1,.23-.54.74.74,0,0,1,.54-.23.78.78,0,0,1,.46.16,4.69,4.69,0,0,0,.78.53,2.75,2.75,0,0,0,.81.26v-2.6q-2.67-.49-2.67-2.67a2.43,2.43,0,0,1,.74-1.82,3.42,3.42,0,0,1,1.93-.87v-.44a.8.8,0,0,1,.82-.81.75.75,0,0,1,.55.23.82.82,0,0,1,.23.58v.49a3.88,3.88,0,0,1,1.86.83.88.88,0,0,1,.39.7.74.74,0,0,1-.23.54.71.71,0,0,1-.53.24.6.6,0,0,1-.36-.12,3.3,3.3,0,0,0-1.13-.58v2.46a4,4,0,0,1,1.88.9A2.69,2.69,0,0,1,43.09,42ZM38.9,36.82a1.87,1.87,0,0,0,.82.44V35.05a1.57,1.57,0,0,0-.82.38,1,1,0,0,0,0,1.39ZM42,40.91a.82.82,0,0,0,.23-.57A1,1,0,0,0,42,39.7a1.57,1.57,0,0,0-.65-.46v2.09A1.83,1.83,0,0,0,42,40.91Z"/><polygon points="78.35 35.67 78.35 74.14 28.85 74.14 28.85 68.39 28.85 64.9 36.9 56.23 43.12 62.32 54.91 48.9 61.77 56.37 78.35 30.66 78.35 35.67" fill="none" stroke="#000" stroke-linecap="round" stroke-linejoin="round" stroke-width="3.28"/><circle cx="39.85" cy="38.4" r="10.15" fill="none" stroke="#000" stroke-linecap="round" stroke-linejoin="round" stroke-width="3.28"/></g></svg>