<svg id="14243f06-0e57-4af1-9068-0dc13d0a320b" data-name="Icons" xmlns="http://www.w3.org/2000/svg" viewBox="0 0 100 100"><title>ITM</title><g id="99a5ff69-2e00-44d9-8699-d4607d011f09" data-name="Intimate Directory"><rect x="32.53" y="25.7" width="38" height="48.6" fill="none" stroke="#000" stroke-linecap="round" stroke-linejoin="round" stroke-width="3"/><path d="M61.31,54.59A10,10,0,0,0,52.83,40,15.2,15.2,0,0,0,61.31,54.59Z" fill="none" stroke="#000" stroke-linecap="round" stroke-linejoin="round" stroke-width="3"/><path d="M52.09,40A10,10,0,0,0,43.6,54.59,15.24,15.24,0,0,0,52.09,40Z" fill="none" stroke="#000" stroke-linecap="round" stroke-linejoin="round" stroke-width="3"/><path d="M52.46,52.72A15.19,15.19,0,0,0,44,55.27a10,10,0,0,0,16.94,0A15.22,15.22,0,0,0,52.46,52.72Z" fill="none" stroke="#000" stroke-linecap="round" stroke-linejoin="round" stroke-width="3"/><line x1="29.47" y1="30.63" x2="35.7" y2="30.63" fill="none" stroke="#000" stroke-linecap="round" stroke-linejoin="round" stroke-width="3"/><line x1="29.47" y1="38.26" x2="35.7" y2="38.26" fill="none" stroke="#000" stroke-linecap="round" stroke-linejoin="round" stroke-width="3"/><line x1="29.47" y1="45.54" x2="35.7" y2="45.54" fill="none" stroke="#000" stroke-linecap="round" stroke-linejoin="round" stroke-width="3"/><line x1="29.47" y1="53.17" x2="35.7" y2="53.17" fill="none" stroke="#000" stroke-linecap="round" stroke-linejoin="round" stroke-width="3"/><line x1="29.47" y1="60.51" x2="35.7" y2="60.51" fill="none" stroke="#000" stroke-linecap="round" stroke-linejoin="round" stroke-width="3"/><line x1="29.47" y1="68.14" x2="35.7" y2="68.14" fill="none" stroke="#000" stroke-linecap="round" stroke-linejoin="round" stroke-width="3"/></g></svg>