<svg id="d5355fe5-d4c0-43b0-8d5f-eb91eca67189" data-name="Icons" xmlns="http://www.w3.org/2000/svg" viewBox="0 0 100 100"><title>ITM</title><g id="e835f974-b830-4e1a-9eee-e135d9dd3878" data-name="WeChat"><path d="M72.87,66a12.49,12.49,0,0,0,2.89-7.88c0-5.81-4.22-10.81-10.27-13v.23a14.79,14.79,0,0,1-.26,2.74c4.54,1.91,7.64,5.69,7.64,10a10.59,10.59,0,0,1-5,8.62,16.64,16.64,0,0,1-9.31,2.75c-6,0-11.1-2.94-13.24-7.08a24.94,24.94,0,0,1-3.23-.24c2.15,5.89,8.71,10.15,16.49,10.15a20.13,20.13,0,0,0,8.6-1.9h0l8.59,5L72.87,66Z"/><path d="M45.44,31.13c-9.48,0-17.18,6.37-17.18,14.23a12.47,12.47,0,0,0,2.89,7.9h0l-2.86,9.41,8.59-5h0a19.91,19.91,0,0,0,8.59,1.91c9.49,0,17.18-6.37,17.18-14.23S54.94,31.13,45.44,31.13Zm0,3.38a15.8,15.8,0,0,1,8.88,2.61,10.06,10.06,0,0,1,4.77,8.22c0,6-6.07,10.84-13.65,10.84S31.79,51.34,31.79,45.36,37.92,34.51,45.44,34.51Z"/><ellipse cx="36.85" cy="45.36" rx="1.43" ry="1.42"/><ellipse cx="45.44" cy="45.36" rx="1.43" ry="1.42"/><ellipse cx="54.04" cy="45.36" rx="1.43" ry="1.42"/><ellipse cx="58.58" cy="58.16" rx="1.43" ry="1.42"/><ellipse cx="67.17" cy="58.16" rx="1.43" ry="1.42"/></g></svg>