<svg id="17c0a01d-9d1d-4e1e-91a6-88c583932a45" data-name="Icons" xmlns="http://www.w3.org/2000/svg" viewBox="0 0 100 100"><title>ITM</title><g id="81942adc-0891-48c5-9cbb-9a3e7978ffd9" data-name="Config"><path d="M68.73,54.76A16.28,16.28,0,0,1,68,57.15l2.79,3.63a23.44,23.44,0,0,1-4.08,5.62l-4.31-1.54a18.48,18.48,0,0,1-2,1.48l.12,4.58a23,23,0,0,1-6.59,2.14l-2.59-3.78c-.42,0-.83,0-1.26,0s-.84,0-1.26,0l-2.59,3.78a23.36,23.36,0,0,1-6.59-2.14l.12-4.58a18.48,18.48,0,0,1-2-1.48L33.34,66.4a23.44,23.44,0,0,1-4.08-5.62l2.79-3.63a19.07,19.07,0,0,1-.78-2.39l-4.39-1.29a23.35,23.35,0,0,1,0-6.95l4.39-1.29a19.62,19.62,0,0,1,.78-2.39l-2.79-3.63a23.35,23.35,0,0,1,4.09-5.61l4.3,1.53a19.8,19.8,0,0,1,2-1.47l-.12-4.58a23.11,23.11,0,0,1,6.6-2.14l2.58,3.77c.42,0,.84,0,1.26,0s.84,0,1.26,0l2.58-3.77a23,23,0,0,1,6.6,2.14l-.12,4.58a19.8,19.8,0,0,1,2,1.47l4.3-1.53a23.35,23.35,0,0,1,4.09,5.61L68,42.84a16.68,16.68,0,0,1,.78,2.39l4.39,1.29a23.35,23.35,0,0,1,0,6.95Z" fill="none" stroke="#000" stroke-linecap="round" stroke-linejoin="round" stroke-width="3"/><circle cx="50" cy="50" r="8.01" fill="none" stroke="#000" stroke-linecap="round" stroke-linejoin="round" stroke-width="3"/></g></svg>