<svg id="ea0d7902-a43a-4605-b2fc-324ac1e0b03f" data-name="Icons" xmlns="http://www.w3.org/2000/svg" viewBox="0 0 100 100"><title>ITM</title><g id="7167ade0-9711-4837-b5ac-95ea0f8dc01f" data-name="Pending"><circle cx="50" cy="50" r="27.06" fill="none" stroke="#000" stroke-linecap="round" stroke-miterlimit="10" stroke-width="3"/><path d="M48.42,48.75a1.8,1.8,0,0,1,1.37-.56,5.38,5.38,0,0,0,3.39-1,3.65,3.65,0,0,0,1.28-3.08,3.43,3.43,0,0,0-1.15-2.65,4.08,4.08,0,0,0-2.88-1.06,4.54,4.54,0,0,0-3.1,1.19,2.35,2.35,0,0,1-1.6.7,1.72,1.72,0,0,1-1.09-.38,1.88,1.88,0,0,1-.83-1.51,1.83,1.83,0,0,1,.61-1.34,8.15,8.15,0,0,1,2.7-1.84,8.4,8.4,0,0,1,3.31-.66,8.06,8.06,0,0,1,4,1,7.65,7.65,0,0,1,2.85,2.74,7.27,7.27,0,0,1,1,3.82A6.63,6.63,0,0,1,56.54,49a8.07,8.07,0,0,1-4.67,2.24c-.1,0-.16.09-.16.16v1.18A1.91,1.91,0,0,1,51.17,54a2,2,0,0,1-2.75,0,1.88,1.88,0,0,1-.55-1.39V50.14A1.89,1.89,0,0,1,48.42,48.75Zm-.21,11a1.94,1.94,0,0,1-.5-1.43v-.54a2,2,0,0,1,.5-1.43,1.91,1.91,0,0,1,1.42-.49h.42a1.91,1.91,0,0,1,1.42.49,2,2,0,0,1,.5,1.43v.54a1.94,1.94,0,0,1-.5,1.43,1.91,1.91,0,0,1-1.42.49h-.42A1.91,1.91,0,0,1,48.21,59.76Z"/></g></svg>