<svg id="7a379275-f12a-4a79-984d-15b997c7ea4e" data-name="Icons" xmlns="http://www.w3.org/2000/svg" viewBox="0 0 100 100"><title>ITM</title><g id="eaf71180-7321-4e10-86a0-c2a3e4b05544" data-name="Deals"><path d="M67.78,27.15,52.65,26,26,52.65,36.69,63.31,47.35,74,74,47.35,72.85,32.22A5.49,5.49,0,0,0,67.78,27.15Z" fill="none" stroke="#000" stroke-linecap="round" stroke-linejoin="round" stroke-width="3"/><circle cx="64.4" cy="35.6" r="3.05" fill="none" stroke="#000" stroke-linecap="round" stroke-miterlimit="10" stroke-width="3"/><path d="M48.73,58.31a6.27,6.27,0,0,1-3.48-1.06l-1,1.06a1.46,1.46,0,0,1-1,.44,1.43,1.43,0,0,1-1-.44,1.33,1.33,0,0,1-.42-1,1.49,1.49,0,0,1,.45-1l1-.95a8.24,8.24,0,0,1-1.29-2.07,7.68,7.68,0,0,1-.55-2.39,1.66,1.66,0,0,1,.44-1.36,1.3,1.3,0,0,1,1-.4,1.27,1.27,0,0,1,1,.4,1.21,1.21,0,0,1,.38.78A9.09,9.09,0,0,0,44.39,52a4.59,4.59,0,0,0,.71,1.37L48.42,50q-2.79-4.05,0-6.85a4.34,4.34,0,0,1,3.28-1.37,6.11,6.11,0,0,1,3.58,1.35l.56-.56a1.45,1.45,0,0,1,1-.44,1.43,1.43,0,0,1,1,.44,1.37,1.37,0,0,1,.42,1,1.49,1.49,0,0,1-.45,1l-.63.63a7,7,0,0,1,1.33,3.44,1.62,1.62,0,0,1-.41,1.39,1.34,1.34,0,0,1-1,.4,1.29,1.29,0,0,1-1-.38,1.12,1.12,0,0,1-.31-.61,6.24,6.24,0,0,0-.71-2.18l-3.15,3.15A7,7,0,0,1,53.3,54a4.84,4.84,0,0,1-4.57,4.3Zm1.23-12a3.53,3.53,0,0,0,.5,1.61l2.83-2.82a2.8,2.8,0,0,0-1.55-.57,1.65,1.65,0,0,0-1.23.52A1.69,1.69,0,0,0,50,46.34Zm-1.33,9.13a1.45,1.45,0,0,0,1-.42A1.86,1.86,0,0,0,50.22,54,3,3,0,0,0,50,52.53L47.3,55.21A3.12,3.12,0,0,0,48.63,55.47Z"/></g></svg>