<svg id="32668a64-f71a-46f5-a6f9-f44e2f275aa5" data-name="Icons" xmlns="http://www.w3.org/2000/svg" viewBox="0 0 100 100"><title>ITM</title><g id="e294b678-5c7e-4291-815e-6e853f19457e" data-name="Telegram"><path d="M69.75,29.27,28.67,46.37s-1.94.7-1.79,2,1.74,1.9,1.74,1.9L39,54s3.12,10.85,3.73,12.92S43.8,69,43.8,69a1.1,1.1,0,0,0,1.09-.15l6.68-6.46L62,70.85a2.67,2.67,0,0,0,3.84-1.42L73.13,30.3C73.13,27.7,69.75,29.27,69.75,29.27Zm-7.27,37L51.34,57.23l-3.45,3.34.76-7.1L63.49,39.4l-20.23,12-9-3.2L68.52,34Z"/></g></svg>