<svg id="ba15636b-0545-4a58-b311-6fcab040baa2" data-name="Icons" xmlns="http://www.w3.org/2000/svg" viewBox="0 0 100 100"><title>ITM</title><g id="a7596d4d-6545-4249-9d0c-dbb284e99483" data-name="Maximum"><rect x="19.72" y="34.82" width="60.57" height="30.35" fill="none" stroke="#000" stroke-linecap="round" stroke-linejoin="round" stroke-width="3.28"/><g id="55ba332a-605d-4496-bf97-08d7f3940d45" data-name="Max"><path d="M43.23,43.47a1.13,1.13,0,0,1,.36.85V55.65a1.15,1.15,0,0,1-1.21,1.19,1.22,1.22,0,0,1-.89-.33,1.14,1.14,0,0,1-.34-.86V47.76l-3.23,4.93a1.67,1.67,0,0,1-.45.39.92.92,0,0,1-.53.12.87.87,0,0,1-.51-.12,1.67,1.67,0,0,1-.45-.39l-3.23-5.1v8.06a1.2,1.2,0,0,1-.31.86,1.09,1.09,0,0,1-.82.33,1,1,0,0,1-.81-.34,1.2,1.2,0,0,1-.31-.85V44.32a1.12,1.12,0,0,1,.36-.84,1.19,1.19,0,0,1,.87-.36,1.29,1.29,0,0,1,.59.15,1.14,1.14,0,0,1,.45.38L37,50.21l4.38-6.56a1.19,1.19,0,0,1,.42-.38,1.1,1.1,0,0,1,.54-.15A1.2,1.2,0,0,1,43.23,43.47Z"/><path d="M57.37,55.79a1.1,1.1,0,0,1-.34.83,1.07,1.07,0,0,1-.76.32,1,1,0,0,1-.63-.22,1.3,1.3,0,0,1-.44-.58l-1-2.37H48.35l-1,2.39a1.13,1.13,0,0,1-.42.57,1,1,0,0,1-1.66-.81,1.29,1.29,0,0,1,.06-.37l4.88-11.7a1.31,1.31,0,0,1,.47-.61,1,1,0,0,1,.7-.17,1.16,1.16,0,0,1,.66.2,1.24,1.24,0,0,1,.44.58l4.81,11.47A1.42,1.42,0,0,1,57.37,55.79Zm-8.06-4.27h3.91l-2-4.58Z"/><path d="M69.25,55a1.22,1.22,0,0,1,.23.73,1.07,1.07,0,0,1-.37.84,1.2,1.2,0,0,1-.8.33,1.17,1.17,0,0,1-1-.51l-3.49-4.64-3.38,4.6a1.16,1.16,0,0,1-1,.55,1.08,1.08,0,0,1-1.06-1,1.27,1.27,0,0,1,.3-.8L62.51,50l-3.77-5a1.08,1.08,0,0,1-.26-.7,1.13,1.13,0,0,1,.37-.84,1.17,1.17,0,0,1,.83-.35,1.19,1.19,0,0,1,1,.5l3.44,4.58,3.37-4.48a1.49,1.49,0,0,1,.45-.42.94.94,0,0,1,.5-.15,1,1,0,0,1,.77.35,1.07,1.07,0,0,1,.33.75,1.23,1.23,0,0,1-.25.71l-3.82,5Z"/></g></g></svg>