<svg id="8048e3d4-95dd-41ee-9121-da0e3ace452c" data-name="Icons" xmlns="http://www.w3.org/2000/svg" viewBox="0 0 100 100"><title>ITM</title><g id="79c2d882-475f-4669-8c00-aa849d2ddabe" data-name="Crypto Settings"><polygon points="58.15 19.77 55.19 31.65 43.19 34.86 46.15 22.82 58.15 19.77" fill="none" stroke="#000" stroke-linecap="round" stroke-linejoin="round" stroke-width="3.28"/><polygon points="67.27 28.69 58.15 19.77 55.19 31.65 64.07 40.24 67.27 28.69" fill="none" stroke="#000" stroke-linecap="round" stroke-linejoin="round" stroke-width="3.28"/><polygon points="43.19 34.86 51.69 43.4 64.07 40.24 55.19 31.65 43.19 34.86" fill="none" stroke="#000" stroke-linecap="round" stroke-linejoin="round" stroke-width="3.28"/><polygon points="53.13 38.07 50.17 49.95 38.17 53.16 41.13 41.11 53.13 38.07" fill="none" stroke="#000" stroke-linecap="round" stroke-linejoin="round" stroke-width="3.28"/><polygon points="62.26 46.99 53.13 38.07 50.17 49.95 59.05 58.54 62.26 46.99" fill="none" stroke="#000" stroke-linecap="round" stroke-linejoin="round" stroke-width="3.28"/><polygon points="38.17 53.16 46.67 61.7 59.05 58.54 50.17 49.95 38.17 53.16" fill="none" stroke="#000" stroke-linecap="round" stroke-linejoin="round" stroke-width="3.28"/><polygon points="47.68 56.6 44.73 68.47 32.73 71.68 35.68 59.64 47.68 56.6" fill="none" stroke="#000" stroke-linecap="round" stroke-linejoin="round" stroke-width="3.28"/><polygon points="56.81 65.52 47.68 56.6 44.73 68.47 53.6 77.07 56.81 65.52" fill="none" stroke="#000" stroke-linecap="round" stroke-linejoin="round" stroke-width="3.28"/><polygon points="32.73 71.68 41.23 80.22 53.6 77.07 44.73 68.47 32.73 71.68" fill="none" stroke="#000" stroke-linecap="round" stroke-linejoin="round" stroke-width="3.28"/></g></svg>