<svg id="ebd4fba2-a555-4e58-886f-cf8fc4b1a9c0" data-name="Icons" xmlns="http://www.w3.org/2000/svg" viewBox="0 0 100 100"><title>ITM</title><g id="065139ba-559d-47ea-82f2-2ebf75d3d4cf" data-name="Failed"><circle cx="50" cy="50" r="27.06" fill="none" stroke="#000" stroke-linecap="round" stroke-miterlimit="10" stroke-width="3"/><path d="M58,57.24a1.88,1.88,0,0,1-.61,1.38,2,2,0,0,1-1.35.57,1.9,1.9,0,0,1-1.56-.83l-3.84-4.77-3.75,4.77a2,2,0,0,1-.69.59,1.77,1.77,0,0,1-.84.21,2,2,0,0,1-1.28-.51,1.51,1.51,0,0,1-.61-1.19,1.86,1.86,0,0,1,.48-1.21l4.45-5.44-4.61-5.73a1.77,1.77,0,0,1-.42-1.15A1.8,1.8,0,0,1,44,42.57,1.91,1.91,0,0,1,45.31,42a1.93,1.93,0,0,1,1.57.8l3.94,4.89,3.65-4.83A1.81,1.81,0,0,1,56,42a1.74,1.74,0,0,1,1.3.53,1.66,1.66,0,0,1,.53,1.2A1.89,1.89,0,0,1,57.38,45L53,50.36l4.61,5.73A1.76,1.76,0,0,1,58,57.24Z"/></g></svg>