<svg id="be119a5e-b677-4ea7-8057-e4aa0356032f" data-name="Icons" xmlns="http://www.w3.org/2000/svg" viewBox="0 0 100 100"><title>ITM</title><g id="6c50847e-c251-4fbc-9e8f-8d89ec0a030b" data-name="Sort A-Z"><path d="M43.23,46a1.18,1.18,0,0,1-.36.89,1.12,1.12,0,0,1-.81.34,1.06,1.06,0,0,1-.68-.23,1.48,1.48,0,0,1-.47-.62l-1.09-2.54H33.58L32.49,46.4A1.17,1.17,0,0,1,32,47a1.21,1.21,0,0,1-1.48-.07,1.08,1.08,0,0,1-.29-.79,1.46,1.46,0,0,1,.07-.4l5.21-12.52a1.43,1.43,0,0,1,.5-.65,1.11,1.11,0,0,1,.76-.18,1.21,1.21,0,0,1,.7.22,1.26,1.26,0,0,1,.47.61L43.12,45.5A1.42,1.42,0,0,1,43.23,46Zm-8.62-4.56h4.18l-2.11-4.9Z"/><path d="M42.6,55l-8,10.21h6.67a1.32,1.32,0,0,1,.93.33,1.12,1.12,0,0,1,.35.87,1.15,1.15,0,0,1-.36.87,1.29,1.29,0,0,1-.92.34H32.14a1.31,1.31,0,0,1-.94-.38,1.12,1.12,0,0,1-.4-.85,1.38,1.38,0,0,1,.29-.8L39,55.37H33a1.28,1.28,0,0,1-.92-.34,1.16,1.16,0,0,1-.35-.88,1.11,1.11,0,0,1,.36-.85A1.29,1.29,0,0,1,33,53h8.56a1.44,1.44,0,0,1,.94.36,1.1,1.1,0,0,1,.42.88A1.29,1.29,0,0,1,42.6,55Z"/><line x1="47.99" y1="34.3" x2="69.73" y2="34.3" fill="none" stroke="#000" stroke-linecap="round" stroke-linejoin="round" stroke-width="3.28"/><line x1="47.99" y1="44.83" x2="69.73" y2="44.83" fill="none" stroke="#000" stroke-linecap="round" stroke-linejoin="round" stroke-width="3.28"/><line x1="47.99" y1="55.36" x2="69.73" y2="55.36" fill="none" stroke="#000" stroke-linecap="round" stroke-linejoin="round" stroke-width="3.28"/><line x1="47.99" y1="65.89" x2="69.73" y2="65.89" fill="none" stroke="#000" stroke-linecap="round" stroke-linejoin="round" stroke-width="3.28"/></g></svg>