<svg id="0145bc24-78d7-480e-ae2b-c207a2c40ac6" data-name="Icons" xmlns="http://www.w3.org/2000/svg" viewBox="0 0 100 100"><title>ITM</title><g id="9094cdb4-23ab-49fd-bec0-ff1bd020807f" data-name="Capture QR"><path d="M30.75,30.32a.63.63,0,0,0-.64.64V42.39a.64.64,0,0,0,.64.64H42.17a.64.64,0,0,0,.64-.64V31a.64.64,0,0,0-.64-.64Zm27.07,0a.64.64,0,0,0-.64.64V42.39a.64.64,0,0,0,.64.64H69.24a.65.65,0,0,0,.65-.64V31a.65.65,0,0,0-.65-.64ZM44.89,31v3.86h3.82v3.81H44.89v7.69H41.05v2.54H34.6V45.05H30.75v3.84h3.82V56h3.85V52.72H42V50.18H44.9V46.32h3.84v1.93h7.65v9.56H52.58V54H48.76V50.2H44.91V54h3.83v3.79h-3.8V69h3.84V65.36h3.8v-3.7h3.85V57.85h3.8V52.13h3.83V56h5.18V52.11H64.08V48.27H60.24v0H56.43V44.4H48.74V38.63h6.61V34.78H48.74V31Zm-13.49.66H41.52V41.74H31.4V31.62Zm27.07,0H68.59V41.74H58.47V31.62ZM32.86,33.07v7.2h7.21v-7.2Zm27.07,0v7.2h7.2v-7.2ZM64.07,44.4v3.85h3.84V44.4ZM30.75,57a.63.63,0,0,0-.64.64V69a.64.64,0,0,0,.64.64H42.17a.64.64,0,0,0,.64-.64V57.62a.64.64,0,0,0-.64-.64Zm18,.89h3.8v3.64h-3.8Zm-17.39.4H41.52V68.39H31.4ZM58,59.58v3.85h3.61v5.78h7.63V65.36H65.46V59.6h-3.6v0Zm-25.14.15v7.2h7.21v-7.2Zm19.73,5.63v3.85h3.84V65.36Z"/></g></svg>