<svg id="5124b003-a412-492c-87e4-2bc0b844e5d7" data-name="Icons" xmlns="http://www.w3.org/2000/svg" viewBox="0 0 100 100"><title>ITM</title><g id="ffd5ab08-0277-4517-92d6-68c322b1737b" data-name="Sort Z-A"><path d="M42.6,34.41l-8,10.21h6.67a1.32,1.32,0,0,1,.93.33,1.14,1.14,0,0,1,.35.87,1.15,1.15,0,0,1-.36.87,1.29,1.29,0,0,1-.92.34H32.14a1.3,1.3,0,0,1-.94-.37,1.16,1.16,0,0,1-.4-.86,1.38,1.38,0,0,1,.29-.8L39,34.79H33a1.28,1.28,0,0,1-.92-.34,1.16,1.16,0,0,1-.35-.88,1.11,1.11,0,0,1,.36-.85,1.29,1.29,0,0,1,.91-.34h8.56a1.44,1.44,0,0,1,.94.36,1.1,1.1,0,0,1,.42.88A1.29,1.29,0,0,1,42.6,34.41Z"/><path d="M43.23,66.38a1.17,1.17,0,0,1-.36.89,1.13,1.13,0,0,1-.81.35,1.12,1.12,0,0,1-.68-.23,1.52,1.52,0,0,1-.47-.63l-1.09-2.53H33.58l-1.09,2.55a1.2,1.2,0,0,1-.45.62,1.14,1.14,0,0,1-.66.22,1,1,0,0,1-1.11-1.09,1.46,1.46,0,0,1,.07-.4l5.21-12.51a1.38,1.38,0,0,1,.5-.65,1.12,1.12,0,0,1,.76-.19,1.21,1.21,0,0,1,.7.22,1.29,1.29,0,0,1,.47.62l5.14,12.26A1.42,1.42,0,0,1,43.23,66.38Zm-8.62-4.56h4.18l-2.11-4.9Z"/><line x1="47.99" y1="34.21" x2="69.73" y2="34.21" fill="none" stroke="#000" stroke-linecap="round" stroke-linejoin="round" stroke-width="3.28"/><line x1="47.99" y1="44.74" x2="69.73" y2="44.74" fill="none" stroke="#000" stroke-linecap="round" stroke-linejoin="round" stroke-width="3.28"/><line x1="47.99" y1="55.26" x2="69.73" y2="55.26" fill="none" stroke="#000" stroke-linecap="round" stroke-linejoin="round" stroke-width="3.28"/><line x1="47.99" y1="65.79" x2="69.73" y2="65.79" fill="none" stroke="#000" stroke-linecap="round" stroke-linejoin="round" stroke-width="3.28"/></g></svg>